<svg width="20" height="20" viewBox="0 0 20 20" fill="none" xmlns="http://www.w3.org/2000/svg">
<path d="M18.41 9.86452C18.4113 14.592 14.685 18.4258 10.0867 18.427C5.48834 18.4287 1.75917 14.597 1.75792 9.86952V9.86411C1.75667 5.13619 5.48292 1.30244 10.0813 1.30119C14.6796 1.29994 18.4083 5.13078 18.41 9.85869V9.86452Z" fill="url(#paint0_linear_12_890)"/>
<path d="M10.8987 1.41943L7.56538 1.62776C7.49158 1.63159 7.41993 1.65394 7.35705 1.69276L4.44038 3.56776C4.37748 3.60656 4.32535 3.66056 4.28877 3.72478C4.2522 3.789 4.23236 3.86138 4.23107 3.93527C4.22978 4.00916 4.24709 4.0822 4.28141 4.14765C4.31573 4.2131 4.36595 4.26888 4.42746 4.30984C4.81205 4.56901 5.19288 4.86734 5.29996 5.14318C5.53038 5.75401 5.79205 6.64901 6.01621 7.42193C6.11446 7.76661 6.21865 8.10958 6.32871 8.45068C6.3758 8.59318 6.41455 8.72068 6.45871 8.82818C6.50288 8.93568 6.5308 9.01734 6.64121 9.14068C6.65788 9.15484 6.67496 9.16776 6.6933 9.17984C6.89038 9.34026 7.0958 9.42818 7.34413 9.50526C7.59246 9.58234 7.87913 9.64318 8.15163 9.68776C8.42413 9.73234 8.68538 9.74859 8.91996 9.75276C9.15455 9.75693 9.31996 9.80818 9.59705 9.63568C9.61038 9.62776 9.62371 9.61901 9.63621 9.60984C9.75496 9.51526 9.76705 9.45193 9.79246 9.40151C9.81788 9.35109 9.83955 9.30901 9.85746 9.25818C9.89371 9.15651 9.92663 9.04234 9.96163 8.90651C10.1277 8.25204 10.2453 7.5862 10.3133 6.91443C10.3433 6.61943 10.3791 6.42401 10.3133 6.15943C10.31 6.14568 10.3175 6.13443 10.3133 6.12026H10.2995C10.2329 5.79818 10.062 5.33193 9.7658 4.80526C9.50161 4.33705 9.14763 3.92558 8.72413 3.59443C8.73913 3.57859 8.77288 3.55026 8.85413 3.51609L10.482 3.52859C10.5308 3.52818 10.5791 3.51901 10.6254 3.50276C10.6637 3.49026 10.7041 3.51693 10.8987 3.42443C10.9962 3.37859 11.1154 3.27276 11.172 3.16401C11.2287 3.05526 11.2525 2.96318 11.2633 2.86443L11.3675 1.91401C11.3754 1.84938 11.369 1.78379 11.3486 1.72193C11.3283 1.66008 11.2945 1.60349 11.2497 1.55623C11.2049 1.50896 11.1502 1.47219 11.0895 1.44854C11.0288 1.42489 10.9637 1.41495 10.8987 1.41943V1.41943Z" fill="url(#paint1_linear_12_890)"/>
<path d="M10.9246 1.86211L10.8204 2.81127C10.7912 3.08127 10.6775 3.01544 10.4775 3.08044L8.76247 3.07419C8.25664 3.23669 8.20122 3.50586 8.23539 3.73586C9.19622 4.27002 9.79622 5.78627 9.8833 6.23669C10.0066 6.67086 9.53122 9.12294 9.36247 9.25752C9.07789 9.43461 7.39164 9.18669 6.96664 8.84086C6.73831 8.58461 6.20122 6.27127 5.71664 4.98669C5.53831 4.52711 5.05997 4.20419 4.67497 3.94502L7.59164 2.07002L10.9246 1.86211Z" fill="url(#paint2_radial_12_890)"/>
<path d="M2.60414 6.69287C2.52519 6.7003 2.45042 6.73176 2.38991 6.78302C2.32941 6.83429 2.28609 6.90288 2.26581 6.97954L1.26331 10.4041C1.24031 10.483 1.24306 10.5672 1.27115 10.6445C1.29925 10.7217 1.35123 10.788 1.41956 10.8337C1.80414 11.0925 2.20206 11.3945 2.31789 11.6929C2.32868 11.7158 2.3418 11.7376 2.35706 11.7579C2.36039 11.7691 2.36497 11.7741 2.36997 11.797C2.38789 11.8745 2.40872 12.0091 2.43497 12.1616C2.48789 12.4666 2.56081 12.8804 2.65622 13.3075C2.75164 13.7345 2.86914 14.1758 3.04706 14.5575C3.22497 14.9391 3.46289 15.2925 3.88039 15.43C3.77914 15.3966 3.86331 15.4341 3.91956 15.4691C3.97581 15.5041 4.04956 15.552 4.14081 15.6125C4.32331 15.7333 4.55664 15.885 4.79164 16.042C5.02664 16.1991 5.26289 16.3658 5.45581 16.4845C5.55206 16.5441 5.63956 16.5879 5.71622 16.6279C5.75456 16.6479 5.78914 16.6633 5.83331 16.68C5.87747 16.6966 5.90331 16.7379 6.08081 16.7058C6.28497 16.6691 6.34789 16.5554 6.38039 16.4975C6.41289 16.4395 6.41997 16.3958 6.43247 16.3541C6.45706 16.2712 6.48247 16.1883 6.49747 16.0937C6.52789 15.9041 6.54997 15.6704 6.57581 15.4429C6.60164 15.2154 6.62789 14.985 6.65414 14.8308C6.66497 14.7675 6.67331 14.7395 6.67997 14.7137C6.70872 14.6891 6.74956 14.6925 6.77122 14.6616C6.85622 14.542 6.86581 14.4179 6.86247 14.3233C6.85539 14.1337 6.79497 13.9887 6.71914 13.8283C6.56747 13.507 6.31914 13.1375 6.04206 12.7475C5.50747 11.9945 4.89622 11.2533 4.62289 10.9508C4.59997 10.8758 4.58706 10.7987 4.55789 10.7166C4.52164 10.6141 4.48081 10.5025 4.45372 10.4041C5.02997 10.65 5.62706 10.8716 6.28956 10.9508C6.32902 10.9526 6.36852 10.9482 6.40664 10.9379C6.6134 10.9032 6.8148 10.8418 7.00581 10.7554C7.11831 10.7045 7.23747 10.6525 7.34414 10.56C7.45081 10.4675 7.56956 10.3191 7.59164 10.1175C7.60169 10.0257 7.57864 9.93333 7.52664 9.85704C6.78622 8.75037 5.72206 8.46746 4.60997 8.06037L3.97122 7.27871C3.93215 7.23336 3.88309 7.1977 3.82789 7.17454L2.79914 6.73204C2.73877 6.7019 2.67146 6.68839 2.60414 6.69287V6.69287Z" fill="url(#paint3_linear_12_890)"/>
<path d="M4.37254 8.38796C5.54754 8.82629 6.51128 9.04962 7.19712 10.0746C7.16795 10.3442 6.57795 10.5259 6.33837 10.565C5.6267 10.4796 4.9717 10.2242 4.32879 9.93254C3.69295 9.79546 4.24629 10.9171 4.28045 11.1471C4.73462 11.6413 6.98712 14.403 6.36879 14.478C6.21712 14.4967 6.1517 16.3092 6.01045 16.3342C5.8692 16.3592 4.15129 15.11 3.99712 15.0596C3.0067 14.7334 2.8442 11.6434 2.68254 11.5509C2.50462 11.0913 2.02587 10.7684 1.64087 10.5092L2.64254 7.08754L3.6767 7.52962L4.37254 8.38796Z" fill="url(#paint4_radial_12_890)"/>
<path d="M18.3551 5.37293L18.3421 2.4821C18.343 2.41347 18.3301 2.34537 18.3042 2.2818C18.2783 2.21823 18.24 2.16048 18.1915 2.11195C18.1429 2.06341 18.0852 2.02508 18.0216 1.9992C17.958 1.97333 17.8899 1.96043 17.8213 1.96127L15.178 1.93543C15.0767 1.93486 14.9774 1.96409 14.8926 2.01947C14.8078 2.07485 14.7411 2.15395 14.7009 2.24693C14.6607 2.3399 14.6486 2.44265 14.6664 2.5424C14.6841 2.64214 14.7307 2.73448 14.8005 2.80793L17.4567 5.7246C17.6005 5.88335 17.8276 5.93668 18.0276 5.85877C18.1249 5.82047 18.2084 5.75351 18.2668 5.66676C18.3253 5.58001 18.3561 5.47755 18.3551 5.37293V5.37293Z" fill="black" fill-opacity="0.32"/>
<path d="M18.1813 5.37334L18.1684 2.4825C18.1672 2.39314 18.1312 2.30777 18.068 2.24458C18.0048 2.18138 17.9194 2.14535 17.8301 2.14417L15.1867 2.11833C15.1203 2.11806 15.0551 2.137 14.9991 2.17288C14.9432 2.20876 14.8988 2.26004 14.8712 2.32057C14.8437 2.38109 14.8343 2.44828 14.8441 2.51404C14.8538 2.5798 14.8824 2.64134 14.9263 2.69125L17.5826 5.60792C17.6296 5.65927 17.691 5.69517 17.7588 5.71091C17.8266 5.72665 17.8976 5.72148 17.9624 5.69609C18.0273 5.6707 18.0829 5.62627 18.1219 5.56865C18.161 5.51104 18.1817 5.44295 18.1813 5.37334V5.37334Z" fill="black" fill-opacity="0.32"/>
<path d="M18.0688 5.373L18.0559 2.48216C18.0564 2.45125 18.0508 2.42055 18.0392 2.39185C18.0277 2.36316 18.0106 2.33706 17.9888 2.31508C17.9669 2.29332 17.9408 2.27614 17.9121 2.26455C17.8834 2.25296 17.8527 2.24719 17.8218 2.24758L15.1784 2.22175C15.1331 2.22139 15.0886 2.23439 15.0505 2.25912C15.0125 2.28386 14.9826 2.31924 14.9645 2.36086C14.9464 2.40248 14.941 2.4485 14.9489 2.49318C14.9568 2.53787 14.9776 2.57925 15.0088 2.61216L17.6651 5.52883C17.6963 5.56413 17.7376 5.58903 17.7833 5.60019C17.8291 5.61136 17.8772 5.60825 17.9211 5.59128C17.9651 5.57432 18.0028 5.54431 18.0292 5.50529C18.0556 5.46627 18.0694 5.42011 18.0688 5.373V5.373Z" fill="black" fill-opacity="0.32"/>
<path d="M17.9413 5.37506L17.9284 2.48423C17.9266 2.47046 17.9222 2.45717 17.9154 2.44506C17.9097 2.43033 17.9009 2.41699 17.8896 2.40589C17.8856 2.40128 17.8813 2.39696 17.8767 2.39298C17.8607 2.38428 17.8428 2.37984 17.8246 2.38006C17.8206 2.37545 17.8163 2.37113 17.8117 2.36714L15.1684 2.34131C15.1592 2.34443 15.1505 2.34877 15.1425 2.35423C15.1288 2.35605 15.1155 2.36043 15.1034 2.36714C15.0934 2.37434 15.0847 2.38306 15.0775 2.39298C15.0709 2.40516 15.0666 2.41842 15.0646 2.43214C15.058 2.4533 15.058 2.47599 15.0646 2.49714C15.0705 2.51181 15.0793 2.52514 15.0904 2.53631L17.7467 5.45297C17.7591 5.46366 17.7737 5.47151 17.7895 5.47598C17.8052 5.48044 17.8218 5.48141 17.8379 5.47881C17.8561 5.47883 17.874 5.4744 17.89 5.46589C17.895 5.46172 17.8988 5.45756 17.9029 5.45297C17.9143 5.44199 17.9232 5.42861 17.9288 5.41381C17.9352 5.40172 17.9394 5.3886 17.9413 5.37506V5.37506Z" fill="black" fill-opacity="0.33"/>
<path d="M15.3354 2.50203L17.8054 2.4912L17.7816 5.14495L15.3354 2.50203Z" fill="url(#paint5_linear_12_890)"/>
<path d="M15.3517 17.6433L18.2426 17.6304C18.3112 17.6311 18.3792 17.6182 18.4428 17.5923C18.5063 17.5664 18.5641 17.5281 18.6126 17.4796C18.6611 17.431 18.6994 17.3733 18.7253 17.3098C18.7512 17.2462 18.7642 17.1781 18.7634 17.1095L18.7892 14.4662C18.7902 14.3647 18.7612 14.2652 18.7059 14.1801C18.6506 14.0951 18.5714 14.0282 18.4782 13.9879C18.3851 13.9476 18.2822 13.9357 18.1823 13.9536C18.0824 13.9715 17.99 14.0185 17.9167 14.0887L15.0001 16.7449C14.9224 16.8152 14.868 16.9074 14.844 17.0093C14.82 17.1112 14.8276 17.218 14.8658 17.3155C14.9039 17.413 14.9709 17.4966 15.0577 17.5551C15.1445 17.6137 15.247 17.6444 15.3517 17.6433V17.6433Z" fill="black" fill-opacity="0.32"/>
<path d="M15.3604 17.4698L18.2512 17.4569C18.3406 17.4556 18.4259 17.4195 18.489 17.3564C18.5522 17.2932 18.5883 17.2079 18.5896 17.1186L18.6154 14.4752C18.6158 14.4087 18.597 14.3434 18.5612 14.2873C18.5253 14.2312 18.474 14.1867 18.4134 14.1592C18.3528 14.1316 18.2855 14.1222 18.2197 14.1321C18.1539 14.142 18.0923 14.1707 18.0425 14.2148L15.1258 16.8711C15.0742 16.918 15.0381 16.9794 15.0223 17.0473C15.0064 17.1152 15.0115 17.1863 15.0369 17.2512C15.0624 17.3161 15.1069 17.3718 15.1647 17.4108C15.2224 17.4498 15.2907 17.4704 15.3604 17.4698V17.4698Z" fill="black" fill-opacity="0.32"/>
<path d="M15.3517 17.3568L18.2425 17.3439C18.2733 17.3442 18.3039 17.3383 18.3325 17.3267C18.361 17.315 18.3869 17.2977 18.4087 17.2759C18.4305 17.2541 18.4477 17.2282 18.4594 17.1997C18.4711 17.1711 18.477 17.1406 18.4767 17.1097L18.5025 14.4664C18.5037 14.4207 18.4912 14.3757 18.4666 14.3371C18.442 14.2986 18.4064 14.2682 18.3645 14.25C18.3225 14.2318 18.2761 14.2265 18.2311 14.2349C18.1862 14.2432 18.1447 14.2648 18.1121 14.2968L15.1954 16.9531C15.1582 16.9536 15.1217 16.9632 15.0889 16.9809C15.0562 16.9986 15.0282 17.0239 15.0074 17.0548C14.9866 17.0856 14.9736 17.1211 14.9694 17.1581C14.9652 17.195 14.9701 17.2325 14.9835 17.2672C14.9969 17.3019 15.0186 17.3329 15.0466 17.3574C15.0745 17.3819 15.108 17.3994 15.1442 17.4082C15.1804 17.417 15.2181 17.4169 15.2542 17.408C15.2904 17.399 15.3238 17.3815 15.3517 17.3568V17.3568Z" fill="black" fill-opacity="0.32"/>
<path d="M15.3401 17.2316L18.2309 17.2187C18.2446 17.2169 18.2579 17.2125 18.2701 17.2058C18.2848 17.2 18.2981 17.1912 18.3092 17.18C18.3138 17.176 18.3181 17.1717 18.3221 17.167C18.3308 17.1511 18.3352 17.1331 18.3351 17.115C18.3397 17.111 18.344 17.1067 18.348 17.102L18.3738 14.4587C18.3705 14.4496 18.3662 14.441 18.3609 14.4329C18.3589 14.4192 18.3545 14.4059 18.348 14.3937C18.3408 14.3838 18.332 14.3751 18.3221 14.3679C18.3099 14.3613 18.2967 14.3569 18.283 14.355C18.2618 14.3483 18.2391 14.3483 18.218 14.355C18.2032 14.3607 18.1899 14.3695 18.1788 14.3808L15.2621 17.037C15.2514 17.0495 15.2436 17.0641 15.2391 17.0798C15.2347 17.0956 15.2337 17.1121 15.2363 17.1283C15.2363 17.1466 15.2409 17.1645 15.2492 17.1804C15.253 17.1854 15.258 17.1891 15.2621 17.1933C15.2731 17.2048 15.2865 17.2136 15.3013 17.2191C15.3133 17.2257 15.3265 17.23 15.3401 17.2316V17.2316Z" fill="black" fill-opacity="0.33"/>
<path d="M18.2146 14.1221L18.2233 17.0779H15.3871L18.2146 14.1221Z" fill="url(#paint6_linear_12_890)"/>
<path d="M0.976681 14.2058L0.989597 17.0966C0.988929 17.1652 1.00194 17.2332 1.02788 17.2967C1.05382 17.3602 1.09216 17.4179 1.14066 17.4664C1.18915 17.5149 1.24684 17.5532 1.31033 17.5791C1.37382 17.6051 1.44185 17.6181 1.51043 17.6174L4.15376 17.6433C4.36126 17.6453 4.54918 17.5228 4.63168 17.3324C4.67194 17.2393 4.68389 17.1364 4.66604 17.0365C4.64818 16.9366 4.6013 16.8442 4.53126 16.7708L1.87501 13.8541C1.80458 13.7769 1.7124 13.7229 1.61064 13.6991C1.50887 13.6754 1.4023 13.6831 1.305 13.7212C1.20769 13.7593 1.12422 13.826 1.06561 13.9125C1.00699 13.999 0.975986 14.1013 0.976681 14.2058V14.2058Z" fill="black" fill-opacity="0.32"/>
<path d="M1.15875 14.2146L1.17167 17.1054C1.17296 17.1948 1.20908 17.2802 1.27234 17.3434C1.3356 17.4066 1.42102 17.4426 1.51042 17.4437L4.15375 17.4696C4.22054 17.4706 4.28618 17.4521 4.34262 17.4163C4.39905 17.3806 4.44384 17.3292 4.47148 17.2684C4.49912 17.2075 4.50842 17.14 4.49824 17.074C4.48806 17.0079 4.45884 16.9463 4.41417 16.8967L1.75792 13.98C1.711 13.9283 1.64953 13.8921 1.58162 13.8761C1.5137 13.8602 1.44253 13.8651 1.3775 13.8904C1.31252 13.916 1.25682 13.9606 1.21776 14.0185C1.1787 14.0764 1.15813 14.1448 1.15875 14.2146V14.2146Z" fill="black" fill-opacity="0.32"/>
<path d="M1.26338 14.2058L1.27629 17.0966C1.2757 17.1275 1.28138 17.1582 1.29298 17.1869C1.30458 17.2155 1.32187 17.2415 1.34379 17.2633C1.38796 17.3079 1.44796 17.332 1.51088 17.3308L4.15421 17.3566C4.19989 17.3577 4.24485 17.3451 4.28334 17.3205C4.32183 17.2958 4.3521 17.2603 4.37026 17.2184C4.38843 17.1764 4.39367 17.13 4.38532 17.0851C4.37697 17.0402 4.3554 16.9988 4.32338 16.9662L1.66713 14.0495C1.6359 14.0142 1.5946 13.9893 1.54879 13.9781C1.50297 13.967 1.45485 13.9701 1.41087 13.9871C1.3669 14.0042 1.3292 14.0342 1.30283 14.0733C1.27646 14.1124 1.26269 14.1586 1.26338 14.2058V14.2058Z" fill="black" fill-opacity="0.32"/>
<path d="M1.37837 14.1962L1.39129 17.0871C1.39312 17.1008 1.3975 17.1141 1.40421 17.1262C1.41008 17.1409 1.41886 17.1542 1.43004 17.1654C1.43379 17.1704 1.43837 17.1741 1.44296 17.1783C1.45894 17.187 1.47686 17.1914 1.49504 17.1912C1.49879 17.1962 1.50337 17.2 1.50796 17.2041L4.15129 17.23C4.16041 17.2268 4.16909 17.2224 4.17712 17.2171C4.19082 17.215 4.20407 17.2107 4.21629 17.2041C4.2262 17.1969 4.23492 17.1882 4.24212 17.1783C4.24871 17.1661 4.25309 17.1529 4.25504 17.1391C4.26169 17.118 4.26169 17.0953 4.25504 17.0741C4.24907 17.0595 4.24029 17.0462 4.22921 17.035L1.57296 14.1183C1.56062 14.1075 1.54603 14.0996 1.53025 14.0951C1.51446 14.0906 1.49788 14.0897 1.48171 14.0925C1.46355 14.0925 1.44568 14.0969 1.42962 14.1054C1.42491 14.1093 1.42058 14.1136 1.41671 14.1183C1.4054 14.1294 1.39659 14.1427 1.39087 14.1575C1.38429 14.1695 1.38005 14.1826 1.37837 14.1962V14.1962Z" fill="black" fill-opacity="0.33"/>
<path d="M4.21964 17.0683H1.54964V14.1591L4.21964 17.0683Z" fill="url(#paint7_linear_12_890)"/>
<path d="M4.85714 1.96618L1.96631 1.9791C1.89772 1.97843 1.8297 1.99145 1.7662 2.01739C1.70271 2.04332 1.64503 2.08166 1.59653 2.13016C1.54804 2.17866 1.5097 2.23634 1.48376 2.29983C1.45782 2.36332 1.4448 2.43135 1.44547 2.49993L1.41964 5.14327C1.41868 5.24474 1.44768 5.34424 1.50299 5.42932C1.55831 5.51439 1.63748 5.58126 1.73062 5.62156C1.82375 5.66185 1.9267 5.67378 2.02658 5.65585C2.12646 5.63793 2.21883 5.59094 2.29214 5.52077L5.20881 2.86452C5.28667 2.79438 5.34131 2.70216 5.36543 2.60017C5.38955 2.49818 5.382 2.39126 5.3438 2.29367C5.3056 2.19608 5.23855 2.11246 5.1516 2.05394C5.06465 1.99543 4.96193 1.96482 4.85714 1.96618V1.96618Z" fill="black" fill-opacity="0.32"/>
<path d="M4.85713 2.14866L1.9663 2.16158C1.87697 2.16287 1.79166 2.19893 1.72849 2.2621C1.66532 2.32527 1.62926 2.41058 1.62797 2.49991L1.60213 5.14324C1.60175 5.20973 1.62061 5.2749 1.65643 5.3309C1.69226 5.38691 1.74352 5.43135 1.80403 5.45888C1.86455 5.48641 1.93174 5.49584 1.9975 5.48604C2.06325 5.47625 2.12477 5.44763 2.17463 5.40366L5.0913 2.74741C5.14284 2.70053 5.17894 2.6391 5.19482 2.57126C5.2107 2.50342 5.20562 2.43235 5.18024 2.36746C5.15486 2.30257 5.11038 2.24691 5.05269 2.20785C4.995 2.16878 4.92681 2.14814 4.85713 2.14866Z" fill="black" fill-opacity="0.32"/>
<path d="M4.8571 2.25283L1.96626 2.26574C1.93537 2.26524 1.90469 2.27095 1.87605 2.28253C1.84742 2.29412 1.8214 2.31135 1.79955 2.3332C1.77771 2.35504 1.76048 2.38106 1.74889 2.4097C1.7373 2.43834 1.73159 2.46902 1.7321 2.49991L1.70626 5.14324C1.70559 5.18875 1.71842 5.23344 1.74312 5.27167C1.76782 5.3099 1.80328 5.33995 1.84505 5.35805C1.88681 5.37614 1.93299 5.38147 1.97778 5.37334C2.02256 5.36522 2.06393 5.34402 2.09668 5.31241L5.01335 2.65616C5.04851 2.6249 5.07329 2.58363 5.08435 2.53789C5.09541 2.49216 5.09222 2.44413 5.07523 2.40026C5.05823 2.35638 5.02823 2.31874 4.98924 2.29239C4.95025 2.26604 4.90415 2.25224 4.8571 2.25283V2.25283Z" fill="black" fill-opacity="0.32"/>
<path d="M4.85711 2.37L1.96628 2.38291C1.95252 2.38467 1.93922 2.38905 1.92711 2.39583C1.91234 2.40169 1.89899 2.41064 1.88795 2.42208C1.88324 2.42596 1.87891 2.43028 1.87503 2.43499C1.86666 2.45109 1.86224 2.46894 1.86211 2.48708C1.8574 2.49096 1.85308 2.49528 1.8492 2.5L1.82336 5.14333C1.8264 5.15252 1.83075 5.16122 1.83628 5.16916C1.83804 5.18292 1.84242 5.19622 1.8492 5.20833C1.8564 5.21824 1.86512 5.22696 1.87503 5.23416C1.88714 5.24094 1.90044 5.24532 1.9142 5.24708C1.93535 5.25373 1.95804 5.25373 1.9792 5.24708C1.99392 5.24132 2.00727 5.23251 2.01836 5.22125L4.93503 2.565C4.94587 2.55268 4.95382 2.53809 4.95829 2.5223C4.96276 2.50651 4.96364 2.48992 4.96086 2.47374C4.96074 2.45561 4.95631 2.43776 4.94795 2.42166C4.94407 2.41695 4.93974 2.41262 4.93503 2.40875C4.92401 2.39739 4.91064 2.38857 4.89586 2.38291C4.88388 2.37621 4.87073 2.37182 4.85711 2.37V2.37Z" fill="black" fill-opacity="0.33"/>
<path d="M1.94543 5.14494L1.96085 2.50619L4.85502 2.49327L1.94543 5.14494Z" fill="url(#paint8_linear_12_890)"/>
<path d="M4.45342 4.40121C4.40509 4.40621 4.36134 4.43204 4.33342 4.47204C4.30551 4.51204 4.29717 4.56246 4.31009 4.60954L4.59676 5.61204L6.57592 14.4141L6.39342 15.3775C6.38917 15.4008 6.38997 15.4247 6.39577 15.4477C6.40158 15.4707 6.41225 15.4921 6.42706 15.5106C6.44188 15.5291 6.46049 15.5442 6.48164 15.5549C6.5028 15.5655 6.526 15.5715 6.54967 15.5725H9.42717C9.45217 15.5717 9.47668 15.5653 9.49888 15.5538C9.52108 15.5423 9.54039 15.5259 9.5554 15.5059C9.57041 15.4859 9.58072 15.4627 9.58557 15.4382C9.59042 15.4136 9.58969 15.3883 9.58342 15.3641L9.40092 14.4395L9.89592 12.5516L10.508 14.4662L10.2347 15.3516C10.2258 15.3766 10.2231 15.4034 10.2267 15.4297C10.2303 15.456 10.2402 15.481 10.2555 15.5027C10.2708 15.5244 10.2911 15.5421 10.3147 15.5543C10.3382 15.5665 10.3644 15.5729 10.3909 15.5729L13.633 15.5862C13.6596 15.5863 13.6858 15.58 13.7094 15.5678C13.733 15.5556 13.7533 15.5379 13.7687 15.5162C13.784 15.4945 13.7939 15.4694 13.7975 15.4431C13.801 15.4168 13.7982 15.39 13.7893 15.365L13.4118 14.3491L14.8959 5.82037L15.4559 4.63537C15.4672 4.61072 15.4722 4.58368 15.4706 4.55662C15.469 4.52956 15.4608 4.5033 15.4467 4.48015C15.4326 4.457 15.413 4.43766 15.3897 4.42383C15.3664 4.40999 15.3401 4.40208 15.313 4.40079H12.4872C12.4624 4.39989 12.4377 4.40456 12.415 4.41446C12.3922 4.42435 12.372 4.43923 12.3558 4.45798C12.3395 4.47673 12.3277 4.49888 12.3212 4.5228C12.3147 4.54672 12.3136 4.57181 12.318 4.59621L12.4872 5.55954L11.5105 11.0675L9.98717 5.18246C9.9757 5.15019 9.95452 5.12227 9.92654 5.10253C9.89857 5.08278 9.86516 5.07218 9.83092 5.07218C9.79668 5.07218 9.76328 5.08278 9.7353 5.10253C9.70732 5.12227 9.68614 5.15019 9.67467 5.18246L8.20342 11.0287L6.97926 5.55996L7.13551 4.59662C7.13893 4.57031 7.13598 4.54356 7.12692 4.51861C7.11785 4.49367 7.10294 4.47127 7.08342 4.45329C7.0684 4.4372 7.05029 4.4243 7.03017 4.41535C7.01006 4.4064 6.98835 4.40159 6.96634 4.40121H4.46634C4.46204 4.40079 4.45772 4.40079 4.45342 4.40121V4.40121Z" fill="black" fill-opacity="0.29"/>
<path d="M4.40135 4.2707C4.36151 4.28005 4.324 4.29741 4.29107 4.3217C4.25815 4.34599 4.2305 4.37673 4.20981 4.41203C4.18912 4.44733 4.17582 4.48646 4.17071 4.52706C4.16561 4.56766 4.1688 4.60887 4.1801 4.6482L4.46635 5.63778H4.45343L6.4326 14.4136L6.2501 15.3511C6.24317 15.3945 6.24573 15.4388 6.25759 15.4811C6.26946 15.5234 6.29035 15.5626 6.31882 15.596C6.3473 15.6294 6.38268 15.6563 6.42254 15.6747C6.46239 15.6932 6.50577 15.7027 6.54968 15.7028H9.42718C9.47237 15.703 9.51705 15.6931 9.55795 15.6739C9.59886 15.6547 9.63497 15.6266 9.66366 15.5917C9.69235 15.5568 9.7129 15.5159 9.72382 15.4721C9.73474 15.4282 9.73574 15.3825 9.72676 15.3382L9.54426 14.4528L9.90885 13.0594L10.3647 14.4657L10.1043 15.3119C10.0772 15.4032 10.0947 15.5015 10.1505 15.5786C10.2063 15.6557 10.2955 15.7011 10.3905 15.7028L13.633 15.7161C13.6814 15.716 13.7292 15.7043 13.7722 15.682C13.8152 15.6598 13.8522 15.6275 13.8803 15.588C13.9083 15.5485 13.9265 15.5029 13.9334 15.455C13.9402 15.407 13.9355 15.3581 13.9197 15.3124L13.5551 14.3228L15.0263 5.88528L15.5863 4.70028C15.6071 4.65423 15.616 4.60375 15.6124 4.55339C15.6088 4.50302 15.5927 4.45434 15.5656 4.41174C15.5385 4.36914 15.5012 4.33394 15.4571 4.30932C15.413 4.2847 15.3635 4.27143 15.313 4.2707H12.4872C12.4433 4.27076 12.4 4.28032 12.3602 4.29873C12.3203 4.31714 12.285 4.34395 12.2565 4.37733C12.228 4.41071 12.2071 4.44986 12.1952 4.49209C12.1833 4.53431 12.1807 4.57862 12.1876 4.62195L12.3438 5.55945L11.4976 10.4036L10.1305 5.1432C10.1181 5.07273 10.0813 5.00887 10.0265 4.96286C9.97174 4.91685 9.90248 4.89163 9.83093 4.89163C9.75938 4.89163 9.69012 4.91685 9.63533 4.96286C9.58054 5.00887 9.54372 5.07273 9.53135 5.1432L8.20343 10.4036L7.1226 5.5207L7.26593 4.62236C7.27294 4.57901 7.27043 4.53465 7.2586 4.49237C7.24676 4.45008 7.22587 4.41087 7.19737 4.37746C7.16887 4.34404 7.13345 4.31723 7.09356 4.29887C7.05367 4.2805 7.01026 4.27103 6.96635 4.27111H4.46635C4.44476 4.26868 4.42297 4.26854 4.40135 4.2707V4.2707Z" fill="black" fill-opacity="0.29"/>
<path d="M4.375 4.14073C4.31646 4.15304 4.2611 4.17736 4.21244 4.21215C4.16377 4.24695 4.12285 4.29146 4.09227 4.34288C4.06168 4.39429 4.0421 4.4515 4.03475 4.51087C4.02741 4.57024 4.03246 4.63049 4.04959 4.68781L4.33625 5.66448V5.69031L6.3025 14.3882L6.12 15.3257C6.09792 15.4524 6.13292 15.582 6.21584 15.6807C6.29875 15.7782 6.42125 15.8345 6.54959 15.8336H9.42709C9.49185 15.8344 9.55596 15.8207 9.61471 15.7934C9.67346 15.7661 9.72535 15.726 9.76656 15.6761C9.80777 15.6261 9.83726 15.5675 9.85285 15.5047C9.86845 15.4418 9.86975 15.3762 9.85667 15.3128L9.67459 14.427L9.92209 13.5153L10.2217 14.4657L9.97417 15.2732C9.95431 15.3382 9.95 15.4069 9.9616 15.4739C9.97319 15.5408 10.0004 15.6041 10.0409 15.6586C10.0815 15.7131 10.1343 15.7573 10.1951 15.7876C10.2558 15.818 10.3229 15.8336 10.3908 15.8332L13.6329 15.8461C13.7013 15.8451 13.7684 15.828 13.8288 15.796C13.8893 15.7641 13.9413 15.7184 13.9807 15.6625C14.02 15.6066 14.0456 15.5422 14.0554 15.4746C14.0651 15.4069 14.0587 15.3379 14.0367 15.2732L13.685 14.3228L15.1563 5.91115L15.7029 4.7524C15.7328 4.68674 15.7457 4.61466 15.7407 4.54271C15.7356 4.47076 15.7126 4.40122 15.6738 4.34041C15.635 4.27959 15.5817 4.22944 15.5186 4.19449C15.4555 4.15955 15.3846 4.14093 15.3125 4.14031H12.4871C12.4236 4.13969 12.3607 4.15309 12.3029 4.17954C12.2452 4.20599 12.194 4.24485 12.153 4.29335C12.1119 4.34185 12.0821 4.39879 12.0656 4.46013C12.0491 4.52147 12.0464 4.5857 12.0575 4.64823L12.2138 5.5599L11.4588 9.8049L10.2479 5.1174C10.2223 5.02661 10.1678 4.94666 10.0925 4.88973C10.0173 4.83279 9.92558 4.80198 9.83125 4.80198C9.73692 4.80198 9.64517 4.83279 9.56996 4.88973C9.49474 4.94666 9.44019 5.02661 9.41459 5.1174L8.21625 9.88281L7.25292 5.54698L7.39625 4.63531C7.40533 4.57372 7.40097 4.5109 7.38349 4.45115C7.36601 4.3914 7.3358 4.33614 7.29496 4.28916C7.25411 4.24218 7.20359 4.20459 7.14685 4.17897C7.09011 4.15335 7.02851 4.14031 6.96625 4.14073H4.46625C4.43593 4.1374 4.40533 4.1374 4.375 4.14073V4.14073Z" fill="black" fill-opacity="0.29"/>
<path d="M4.40126 3.98444C4.31612 3.99319 4.23391 4.02038 4.16035 4.06413C4.08678 4.10788 4.02363 4.16712 3.97529 4.23775C3.92695 4.30838 3.89458 4.38869 3.88042 4.4731C3.86627 4.55751 3.87068 4.64399 3.89334 4.72653L4.18001 5.70319V5.72903L6.14626 14.414L5.97709 15.2865C5.9603 15.3715 5.96245 15.4591 5.9834 15.5431C6.00435 15.6272 6.04358 15.7055 6.0983 15.7727C6.15301 15.8398 6.22187 15.894 6.29995 15.9315C6.37803 15.969 6.46341 15.9888 6.55001 15.9894H9.42751C9.61876 15.9903 9.79834 15.8974 9.90918 15.7419C10.02 15.8974 10.1996 15.9903 10.3908 15.9894L13.6329 16.0028C13.825 16.0011 14.0042 15.9061 14.1125 15.7478C14.2208 15.5894 14.2463 15.3886 14.1796 15.2086L13.8542 14.3103L15.2996 5.97694L15.8463 4.83111C15.935 4.64778 15.9229 4.43194 15.8146 4.25944C15.7611 4.17481 15.6869 4.10518 15.5991 4.05707C15.5113 4.00897 15.4126 3.98398 15.3125 3.98444H12.4871C12.4007 3.98366 12.3153 4.00186 12.2367 4.03778C12.1582 4.07369 12.0885 4.12643 12.0326 4.19226C11.9767 4.2581 11.936 4.33541 11.9133 4.41874C11.8906 4.50206 11.8865 4.58936 11.9013 4.67444L12.0575 5.55986L11.4325 9.06236L10.4038 5.07819C10.3732 4.94919 10.3 4.83427 10.1961 4.75204C10.0921 4.6698 9.96341 4.62506 9.83084 4.62506C9.69828 4.62506 9.56959 4.6698 9.46562 4.75204C9.36164 4.83427 9.28846 4.94919 9.25793 5.07819L8.22918 9.17986L7.40876 5.53403L7.55209 4.66153C7.56486 4.57739 7.55924 4.49148 7.53562 4.40973C7.51199 4.32797 7.47092 4.25231 7.41524 4.18796C7.35956 4.1236 7.29058 4.07208 7.21307 4.03695C7.13557 4.00181 7.05136 3.9839 6.96626 3.98444H4.46626C4.44461 3.98319 4.42291 3.98319 4.40126 3.98444V3.98444ZM9.93501 14.0886L10.065 14.4794L9.92168 14.9219L9.83043 14.4794L9.93501 14.0886Z" fill="black" fill-opacity="0.29"/>
<path d="M4.46298 4.57033L4.75923 5.5695L6.74507 14.4041L6.54965 15.407H9.43048L9.23173 14.4403L9.8859 11.9599L10.6738 14.4728L10.3938 15.407L13.6392 15.4137L13.2405 14.3541L14.7321 5.79908L15.3121 4.56866L12.4871 4.57033L12.6509 5.5645L11.5484 11.8491L9.83132 5.22158L8.19048 11.732L6.81048 5.53408L6.96632 4.57033H4.46298Z" fill="black" fill-opacity="0.29"/>
<path d="M4.46625 4.57051L5.87416 5.61051L7.75875 14.3751L6.54791 15.4072L6.745 14.4013L4.76583 5.57301L4.46625 4.57051Z" fill="url(#paint9_linear_12_890)"/>
<path d="M7.76046 14.375L6.54796 15.4071L9.43379 15.4037L8.32046 14.3817L7.76046 14.375Z" fill="#792100"/>
<path d="M6.95962 4.58008L5.87546 5.61341L7.76004 14.3747L8.31504 14.3797L8.20338 11.6538L6.86213 5.57299L6.95962 4.58008Z" fill="url(#paint10_linear_12_890)"/>
<path d="M9.43214 15.4071L8.32214 14.3834L9.87964 8.39879L9.88631 11.9567L9.23214 14.4405L9.43214 15.4071Z" fill="url(#paint11_linear_12_890)"/>
<path d="M9.83083 5.20833L9.88292 8.3725L8.31875 14.3867L8.21625 11.6796L9.83083 5.20833Z" fill="url(#paint12_linear_12_890)"/>
<path d="M4.46289 4.57051L5.87581 5.61218L6.96622 4.57384L4.46289 4.57051Z" fill="url(#paint13_linear_12_890)"/>
<path d="M9.82753 5.21506L9.87961 8.39547L11.3134 14.3876L12.2075 14.3921L9.82753 5.21506Z" fill="url(#paint14_linear_12_890)"/>
<path d="M9.87956 8.39879L9.88623 11.95L10.6762 14.4713L10.3962 15.403L11.3216 14.3913L9.87956 8.39879Z" fill="url(#paint15_linear_12_890)"/>
<path d="M12.2038 14.3866L11.325 14.3899L10.39 15.407L13.6371 15.4128L12.2038 14.3866Z" fill="#792100"/>
<path d="M14.7292 5.78529L15.3096 4.57738L13.7463 5.46154L12.1975 14.389L13.6404 15.4157L13.2409 14.3549L14.7292 5.78529Z" fill="url(#paint16_linear_12_890)"/>
<path d="M12.6509 5.56008L12.4826 4.58008L13.748 5.45591L12.1976 14.3801L11.5471 11.8476L12.6509 5.56008Z" fill="url(#paint17_linear_12_890)"/>
<path d="M12.4809 4.57715L13.74 5.46548L15.3163 4.57173L12.4809 4.57715Z" fill="url(#paint18_linear_12_890)"/>
<path d="M9.88291 0.378021C4.63583 0.378021 0.377914 4.64177 0.377914 9.89635C0.377914 15.1509 4.63583 19.4143 9.88291 19.4143C15.1304 19.4143 19.3879 15.1505 19.3879 9.89594C19.3879 4.64135 15.1304 0.378021 9.88291 0.378021V0.378021ZM9.84374 2.01844C14.1475 2.01844 17.6304 5.50969 17.6304 9.83094C17.6304 14.1522 14.1475 17.6564 9.84374 17.6564C5.54 17.6564 2.04416 14.1522 2.04416 9.83094C2.04458 5.50969 5.54 2.01844 9.84374 2.01844V2.01844Z" fill="black" fill-opacity="0.26"/>
<path d="M9.88295 0.234573C4.55754 0.234573 0.234619 4.56374 0.234619 9.89624C0.234619 15.2283 4.55754 19.5579 9.88295 19.5579C15.2084 19.5579 19.5313 15.2283 19.5313 9.89624C19.5313 4.56374 15.2084 0.234573 9.88295 0.234573V0.234573ZM9.84379 2.16166C14.0692 2.16166 17.4871 5.58749 17.4871 9.83082C17.4871 14.0742 14.0692 17.5133 9.84379 17.5133C5.61879 17.5133 2.18754 14.0742 2.18754 9.83082C2.18754 5.58791 5.61837 2.16166 9.84379 2.16166V2.16166Z" fill="black" fill-opacity="0.28"/>
<path d="M9.88292 0C4.43083 0 0 4.43708 0 9.89583C0 15.3546 4.43083 19.7917 9.88292 19.7917C15.3354 19.7917 19.7658 15.3546 19.7658 9.89583C19.7658 4.43708 15.3354 0 9.88292 0ZM9.84375 2.39583C13.9425 2.39583 17.2525 5.71333 17.2525 9.83083C17.2525 13.9483 13.9412 17.2787 9.84375 17.2787C5.74625 17.2787 2.42208 13.9471 2.42208 9.83083C2.42208 5.71458 5.745 2.39583 9.84375 2.39583Z" fill="black" fill-opacity="0.41"/>
<path d="M9.88297 0.520844C4.71214 0.520844 0.520889 4.71793 0.520889 9.89584C0.520889 15.0742 4.71214 19.2708 9.88297 19.2708C15.0538 19.2708 19.2451 15.0742 19.2451 9.89584C19.2451 4.71793 15.0538 0.520844 9.88297 0.520844ZM9.8438 1.87501C14.2242 1.87501 17.7734 5.43376 17.7734 9.83084C17.7734 14.2279 14.2238 17.7996 9.8438 17.7996C5.46381 17.7996 1.90131 14.2279 1.90131 9.83084C1.90131 5.43376 5.46381 1.87501 9.8438 1.87501Z" fill="url(#paint19_linear_12_890)"/>
<path d="M9.64671 0.582016C4.73754 0.582016 0.766708 4.55827 0.766708 9.47535C0.766708 14.3924 4.73796 18.3687 9.64671 18.3687C14.5555 18.3687 18.5271 14.3924 18.5271 9.47535C18.5271 4.55827 14.5559 0.582016 9.64671 0.582016V0.582016ZM9.60754 0.972433C14.2496 0.972433 18.0192 4.75243 18.0192 9.40993C18.0192 14.0674 14.2509 17.8604 9.60754 17.8604C4.96421 17.8604 1.18337 14.0687 1.18337 9.40993C1.18337 4.75118 4.96546 0.972433 9.60754 0.972433V0.972433Z" fill="url(#paint20_linear_12_890)"/>
<defs>
<linearGradient id="paint0_linear_12_890" x1="4.86209" y1="-0.271306" x2="13.7787" y2="17.0412" gradientUnits="userSpaceOnUse">
<stop stop-color="#5B779E"/>
<stop offset="0.399" stop-color="#2D3B50"/>
<stop offset="1" stop-color="#0C0E14"/>
</linearGradient>
<linearGradient id="paint1_linear_12_890" x1="8.11205" y1="3.51193" x2="10.8204" y2="9.42859" gradientUnits="userSpaceOnUse">
<stop stop-opacity="0"/>
<stop offset="1" stop-opacity="0.62"/>
</linearGradient>
<radialGradient id="paint2_radial_12_890" cx="0" cy="0" r="1" gradientUnits="userSpaceOnUse" gradientTransform="translate(6.80955 3.1493) rotate(-11.4923) scale(11.941 6.21109)">
<stop stop-color="#BDD9F9"/>
<stop offset="0.065" stop-color="#BDD9F9"/>
<stop offset="1" stop-color="#1C3556" stop-opacity="0.1"/>
</radialGradient>
<linearGradient id="paint3_linear_12_890" x1="0.987056" y1="2.89537" x2="5.69539" y2="12.9995" gradientUnits="userSpaceOnUse">
<stop stop-opacity="0"/>
<stop offset="1" stop-opacity="0.62"/>
</linearGradient>
<radialGradient id="paint4_radial_12_890" cx="0" cy="0" r="1" gradientUnits="userSpaceOnUse" gradientTransform="translate(4.72022 5.62628) rotate(-11.4923) scale(11.941 6.21109)">
<stop stop-color="#BDD9F9"/>
<stop offset="0.065" stop-color="#BDD9F9"/>
<stop offset="1" stop-color="#1C3556" stop-opacity="0.1"/>
</radialGradient>
<linearGradient id="paint5_linear_12_890" x1="15.7162" y1="1.99161" x2="18.3412" y2="4.31245" gradientUnits="userSpaceOnUse">
<stop stop-color="#FDEC97"/>
<stop offset="0.353" stop-color="#FDEC97"/>
<stop offset="0.513" stop-color="#FDEC97"/>
<stop offset="0.628" stop-color="#DB990F"/>
<stop offset="1" stop-color="#DB990F"/>
</linearGradient>
<linearGradient id="paint6_linear_12_890" x1="15.9246" y1="17.9333" x2="18.6746" y2="15.1208" gradientUnits="userSpaceOnUse">
<stop stop-color="#FFDC76"/>
<stop offset="0.327" stop-color="#E4903B"/>
<stop offset="0.451" stop-color="#CA4400"/>
<stop offset="0.58" stop-color="#FDEC97"/>
<stop offset="0.704" stop-color="#DB990F"/>
<stop offset="1" stop-color="#DB990F"/>
</linearGradient>
<linearGradient id="paint7_linear_12_890" x1="3.2163" y1="17.4291" x2="1.38297" y2="15.4041" gradientUnits="userSpaceOnUse">
<stop stop-color="#FFDC76"/>
<stop offset="0.327" stop-color="#E4903B"/>
<stop offset="0.451" stop-color="#CA4400"/>
<stop offset="0.58" stop-color="#FDEC97"/>
<stop offset="0.704" stop-color="#DB990F"/>
<stop offset="1" stop-color="#DB990F"/>
</linearGradient>
<linearGradient id="paint8_linear_12_890" x1="1.4246" y1="4.47494" x2="3.9246" y2="2.0041" gradientUnits="userSpaceOnUse">
<stop stop-color="#CA4400"/>
<stop offset="0.353" stop-color="#CA4400"/>
<stop offset="0.513" stop-color="#FDEC97"/>
<stop offset="0.628" stop-color="#DB990F"/>
<stop offset="1" stop-color="#DB990F"/>
</linearGradient>
<linearGradient id="paint9_linear_12_890" x1="4.88291" y1="4.63343" x2="7.17458" y2="14.7376" gradientUnits="userSpaceOnUse">
<stop stop-color="#DA940F"/>
<stop offset="0.235" stop-color="#EFD11A"/>
<stop offset="0.75" stop-color="#EFD11A"/>
<stop offset="0.908" stop-color="#EFD11A"/>
<stop offset="1" stop-color="#D3900E"/>
</linearGradient>
<linearGradient id="paint10_linear_12_890" x1="6.29962" y1="4.60424" x2="8.29962" y2="14.1292" gradientUnits="userSpaceOnUse">
<stop stop-color="#C63000"/>
<stop offset="0.491" stop-color="#DB9000"/>
<stop offset="0.8" stop-color="#DB9000"/>
<stop offset="1" stop-color="#C43B00"/>
</linearGradient>
<linearGradient id="paint11_linear_12_890" x1="10.258" y1="9.10837" x2="8.79964" y2="15.2292" gradientUnits="userSpaceOnUse">
<stop stop-color="#AD2F00"/>
<stop offset="1" stop-color="#CB7500"/>
</linearGradient>
<linearGradient id="paint12_linear_12_890" x1="10.2579" y1="6.2" x2="8.13292" y2="12.6458" gradientUnits="userSpaceOnUse">
<stop stop-color="#ECD500"/>
<stop offset="0.869" stop-color="#ECD500"/>
<stop offset="1" stop-color="#FFEF57"/>
</linearGradient>
<linearGradient id="paint13_linear_12_890" x1="5.67456" y1="4.52093" x2="6.21622" y2="5.62926" gradientUnits="userSpaceOnUse">
<stop stop-color="#FFD511"/>
<stop offset="1" stop-color="#FDF8DC"/>
</linearGradient>
<linearGradient id="paint14_linear_12_890" x1="9.46628" y1="6.00839" x2="11.8829" y2="14.3917" gradientUnits="userSpaceOnUse">
<stop stop-color="#BD3300"/>
<stop offset="0.188" stop-color="#BD3300"/>
<stop offset="0.411" stop-color="#CB8500"/>
<stop offset="1" stop-color="#C26F00"/>
</linearGradient>
<linearGradient id="paint15_linear_12_890" x1="9.3829" y1="9.25837" x2="11.0079" y2="14.8334" gradientUnits="userSpaceOnUse">
<stop stop-color="#FFD303"/>
<stop offset="0.902" stop-color="#FFD303"/>
<stop offset="1" stop-color="#D27E00"/>
</linearGradient>
<linearGradient id="paint16_linear_12_890" x1="14.6746" y1="4.37488" x2="12.8413" y2="15.3457" gradientUnits="userSpaceOnUse">
<stop stop-color="#A51F00"/>
<stop offset="0.288" stop-color="#C67200"/>
<stop offset="0.644" stop-color="#C67200"/>
<stop offset="1" stop-color="#C25500"/>
</linearGradient>
<linearGradient id="paint17_linear_12_890" x1="13.258" y1="4.61258" x2="11.4247" y2="14.3084" gradientUnits="userSpaceOnUse">
<stop stop-color="#CD7C00"/>
<stop offset="0.314" stop-color="#EED700"/>
<stop offset="1" stop-color="#EED700"/>
</linearGradient>
<linearGradient id="paint18_linear_12_890" x1="13.883" y1="4.5209" x2="14.3413" y2="5.4709" gradientUnits="userSpaceOnUse">
<stop stop-color="#FFD511"/>
<stop offset="1" stop-color="#FDF8DC"/>
</linearGradient>
<linearGradient id="paint19_linear_12_890" x1="-0.575361" y1="14.2458" x2="21.008" y2="5.27085" gradientUnits="userSpaceOnUse">
<stop stop-color="#51290E"/>
<stop offset="0.346" stop-color="#D08E29"/>
<stop offset="0.417" stop-color="#E1D02D"/>
<stop offset="0.498" stop-color="#F6E57F"/>
<stop offset="0.537" stop-color="#F6E57F"/>
<stop offset="0.605" stop-color="#E1D02D"/>
<stop offset="0.687" stop-color="#D08E29"/>
<stop offset="1" stop-color="#452A15"/>
</linearGradient>
<linearGradient id="paint20_linear_12_890" x1="15.0496" y1="17.1499" x2="3.88295" y2="1.3541" gradientUnits="userSpaceOnUse">
<stop stop-color="#FFE12B"/>
<stop offset="0.136" stop-color="#FFF7C7" stop-opacity="0"/>
<stop offset="0.819" stop-color="#FFF7C7" stop-opacity="0"/>
<stop offset="1" stop-color="#FFE12B"/>
</linearGradient>
</defs>
</svg>
