<svg width="20" height="20" viewBox="0 0 20 20" fill="none" xmlns="http://www.w3.org/2000/svg">
<path d="M5.00001 6.66666C5.00001 3.90523 7.23858 1.66666 10 1.66666V1.66666C12.7614 1.66666 15 3.90523 15 6.66666V9.84936C15 10.2236 15.077 10.5937 15.2262 10.9369L16.7033 14.3341C16.8827 14.7469 16.5802 15.2083 16.1301 15.2083H3.86993C3.41982 15.2083 3.11729 14.7469 3.29676 14.3341L4.77381 10.9369C4.92301 10.5937 5.00001 10.2236 5.00001 9.84936V6.66666Z" stroke="white" stroke-width="1.5" stroke-linejoin="round"/>
<path d="M12.5 15.8333C12.5 17.2141 11.3807 18.3333 10 18.3333C8.61929 18.3333 7.5 17.2141 7.5 15.8333" stroke="white" stroke-width="1.5" stroke-linejoin="round"/>
</svg>
