<svg width="12" height="12" viewBox="0 0 12 12" fill="none" xmlns="http://www.w3.org/2000/svg">
<path d="M10.7175 1.28245C10.6468 1.2117 10.5457 1.18139 10.4447 1.2117L8.80747 1.67659C8.75694 1.6867 8.71651 1.71702 8.67609 1.75744L3.9969 6.79035L3.08734 6.20419C3.00649 6.15365 2.89532 6.16376 2.82457 6.2345L2.34958 6.7095C2.26873 6.79035 2.26873 6.92173 2.34958 7.00258L3.27936 7.93235L2.15756 9.06425C1.90491 9.04404 1.64214 9.12489 1.45013 9.31691C1.11662 9.65041 1.11662 10.2063 1.45013 10.5499C1.79374 10.8935 2.34958 10.8935 2.69319 10.5499C2.88521 10.3578 2.96606 10.0951 2.94585 9.84243L4.06764 8.72064L4.99742 9.65041C5.07827 9.73126 5.20965 9.73126 5.2905 9.65041L5.7756 9.16531C5.84634 9.09457 5.85645 8.9834 5.80591 8.90255L5.21975 7.99299L10.2426 3.3138C10.283 3.28348 10.3032 3.23295 10.3234 3.18242L10.7883 1.55532C10.8186 1.45425 10.7883 1.35319 10.7175 1.28245Z" fill="#24F24D"/>
</svg>
